<?xml version="1.0" encoding="UTF-8"?>
<svg version="1.1" xmlns="http://www.w3.org/2000/svg" width="400" height="150">
<path d="M0 0 C6.35023439 2.64791297 12.45332417 3.11028325 18.95849609 0.59814453 C21.74192016 -0.59085791 24.49420948 -1.84311051 27.24755859 -3.09985352 C36.19993576 -7.15636647 45.23076275 -9.56305794 54.87890625 -6.5078125 C59.33383659 -4.02333212 62.49002532 -1.6119553 64.12890625 3.3046875 C65.61207748 19.06034251 58.34545456 32.02494592 49.06640625 44.2421875 C48.65503418 44.78601074 48.24366211 45.32983398 47.81982422 45.89013672 C45.23182001 49.19754632 42.50154526 51.80977629 39.12890625 54.3046875 C35.82890625 52.6546875 32.52890625 51.0046875 29.12890625 49.3046875 C29.45890625 48.3146875 29.78890625 47.3246875 30.12890625 46.3046875 C30.78890625 46.3046875 31.44890625 46.3046875 32.12890625 46.3046875 C32.12890625 43.9946875 32.12890625 41.6846875 32.12890625 39.3046875 C30.64390625 38.8096875 30.64390625 38.8096875 29.12890625 38.3046875 C29.12890625 37.6446875 29.12890625 36.9846875 29.12890625 36.3046875 C30.75140566 35.46649592 32.37699122 34.6342759 34.00390625 33.8046875 C34.90882812 33.340625 35.81375 32.8765625 36.74609375 32.3984375 C39.12890625 31.3046875 39.12890625 31.3046875 41.12890625 31.3046875 C42.84326805 33.26395813 44.51295793 35.26348962 46.12890625 37.3046875 C53.61043855 30.58119592 57.90266584 19.79739474 59.11328125 9.94140625 C59.13738113 5.874552 58.35367638 3.7160017 56.12890625 0.3046875 C51.28495945 -2.85348046 45.67520932 -2.24994281 40.12890625 -1.6953125 C35.30069508 -0.46317085 30.59299693 1.07264216 26.12890625 3.3046875 C26.8765625 3.70300781 27.62421875 4.10132813 28.39453125 4.51171875 C29.379375 5.04152344 30.36421875 5.57132813 31.37890625 6.1171875 C32.84070313 6.90029297 32.84070313 6.90029297 34.33203125 7.69921875 C36.77717078 9.10278348 39.00174003 10.45607876 41.12890625 12.3046875 C41.12890625 12.9646875 41.12890625 13.6246875 41.12890625 14.3046875 C41.78890625 14.3046875 42.44890625 14.3046875 43.12890625 14.3046875 C48.12890625 19.78087798 48.12890625 19.78087798 48.12890625 22.3046875 C44.06999182 27.504022 39.93292711 29.70984993 33.44140625 30.6171875 C31.82685547 30.76607422 31.82685547 30.76607422 30.1796875 30.91796875 C27.15271116 31.15637562 27.15271116 31.15637562 24.65625 32.3828125 C21.32532801 33.59780105 18.88127864 33.17414676 15.37890625 32.7421875 C6.51318107 31.96319073 0.14116148 33.66067719 -6.87109375 39.3046875 C-8.02934707 41.3650905 -8.02934707 41.3650905 -8.87109375 43.3046875 C-2.21713277 49.47982747 2.76704971 53.00320398 12.12890625 53.3046875 C13.9647754 53.12003011 15.79825711 52.91042029 17.62890625 52.6796875 C22.20728041 52.17518346 25.02863775 52.64879781 29.16796875 54.56640625 C31.41867926 55.41378531 33.23294589 55.44721213 35.62890625 55.4921875 C40.85996614 55.87428231 43.31101759 58.83611314 46.6953125 62.58984375 C47.16839844 63.15574219 47.64148438 63.72164063 48.12890625 64.3046875 C43.37303777 73.81642447 36.66413046 77.96875054 27.12890625 82.3046875 C28.5436876 82.95464047 29.96082112 83.59947472 31.37890625 84.2421875 C32.56226562 84.78166016 32.56226562 84.78166016 33.76953125 85.33203125 C37.94243649 87.05231834 41.54712581 87.4862999 46.06640625 87.5546875 C47.08605469 87.58046875 48.10570313 87.60625 49.15625 87.6328125 C52.56971483 87.25603057 54.39285832 86.34824896 57.12890625 84.3046875 C59.74880202 79.30306831 59.40723016 74.64452155 58.12890625 69.3046875 C56.25290034 64.03088068 54.23987208 58.97113624 51.12890625 54.3046875 C51.50390625 52.1171875 51.50390625 52.1171875 52.12890625 50.3046875 C53.8984375 50.34765625 53.8984375 50.34765625 56.12890625 51.3046875 C57.55554792 53.75331264 58.70643302 56.03208645 59.81640625 58.6171875 C60.12384766 59.29458984 60.43128906 59.97199219 60.74804688 60.66992188 C64.37317478 68.78481431 65.78479529 77.15303272 63.00390625 85.8046875 C59.56158624 90.39444752 55.72360681 92.49611034 50.12890625 93.3046875 C40.08668421 93.49807279 29.98615493 91.25322618 21.22265625 86.20703125 C14.61983477 83.36141229 5.299246 83.26862876 -1.45703125 85.4765625 C-3.59450297 86.52200872 -5.71272338 87.60784468 -7.80859375 88.734375 C-15.29470981 92.57291921 -24.68045619 94.87510659 -32.99609375 92.765625 C-37.12035993 91.38581536 -40.26411254 89.91435379 -42.87109375 86.3046875 C-46.33487193 78.22253841 -44.84330972 70.17205532 -41.68359375 62.2421875 C-39.52898741 57.42564019 -37.01955069 52.91965891 -34.203125 48.4609375 C-33.76355469 47.749375 -33.32398438 47.0378125 -32.87109375 46.3046875 C-32.40960938 45.675625 -31.948125 45.0465625 -31.47265625 44.3984375 C-30.56710027 42.1289332 -30.56710027 42.1289332 -32.25 39.4921875 C-32.97058594 38.4403125 -33.69117188 37.3884375 -34.43359375 36.3046875 C-40.72303364 26.69034371 -46.70201197 15.86079577 -44.42578125 3.98046875 C-42.96671681 -0.55604771 -41.02994775 -3.1806566 -36.87109375 -5.6953125 C-24.543136 -11.17440483 -11.39071998 -5.20940777 0 0 Z M-37.87109375 0.3046875 C-40.61658349 4.43124177 -40.44077008 8.51940631 -39.87109375 13.3046875 C-37.9947738 21.32169091 -34.75406933 27.7335975 -29.87109375 34.3046875 C-29.21109375 35.2946875 -28.55109375 36.2846875 -27.87109375 37.3046875 C-27.5565625 36.43585938 -27.24203125 35.56703125 -26.91796875 34.671875 C-22.65105772 23.18206037 -22.65105772 23.18206037 -18.87109375 18.3046875 C-18.28972656 17.50289062 -17.70835938 16.70109375 -17.109375 15.875 C-13.96946933 12.26931425 -10.23950589 10.32672698 -6.13671875 7.953125 C-5.3890625 7.40914062 -4.64140625 6.86515625 -3.87109375 6.3046875 C-3.87109375 5.3146875 -3.87109375 4.3246875 -3.87109375 3.3046875 C-5.76441909 2.48636028 -7.66087108 1.67526482 -9.55859375 0.8671875 C-10.61433594 0.41472656 -11.67007813 -0.03773437 -12.7578125 -0.50390625 C-17.5188622 -2.32588888 -21.78674494 -2.86749083 -26.87109375 -2.9453125 C-27.88171875 -2.97109375 -28.89234375 -2.996875 -29.93359375 -3.0234375 C-33.36232878 -2.6404405 -35.14821047 -1.7942017 -37.87109375 0.3046875 Z M-28.87109375 48.3046875 C-28.87109375 49.2946875 -28.87109375 50.2846875 -28.87109375 51.3046875 C-29.53109375 51.3046875 -30.19109375 51.3046875 -30.87109375 51.3046875 C-32.00386643 53.48845516 -33.12732164 55.67625878 -34.24609375 57.8671875 C-34.56320313 58.47626953 -34.8803125 59.08535156 -35.20703125 59.71289062 C-38.6416746 66.47484471 -40.48377317 72.70746268 -39.87109375 80.3046875 C-38.59275677 83.33232771 -37.29093284 84.92420832 -34.87109375 87.1171875 C-27.41068666 90.0702653 -20.23245127 88.41333532 -12.87109375 85.9921875 C-12.22414551 85.77949219 -11.57719727 85.56679687 -10.91064453 85.34765625 C-7.591552 84.17157917 -5.0937689 83.09120304 -2.87109375 80.3046875 C-4.63453125 79.5003125 -4.63453125 79.5003125 -6.43359375 78.6796875 C-17.16478962 73.22892134 -22.45630272 64.955978 -26.24609375 53.6796875 C-26.80003092 51.89177647 -27.34629072 50.1013661 -27.87109375 48.3046875 C-28.20109375 48.3046875 -28.53109375 48.3046875 -28.87109375 48.3046875 Z " fill="#FCFDFD" transform="translate(60.87109375,32.6953125)"/>
<path d="M0 0 C5.58450384 1.11690077 7.31131381 2.97232921 10.8125 7.0625 C11.31458984 7.63033203 11.81667969 8.19816406 12.33398438 8.78320312 C13.56627224 10.17979604 14.78455648 11.5887232 16 13 C16.89203125 12.0615625 17.7840625 11.123125 18.703125 10.15625 C19.88487968 8.9369793 21.067201 7.71825764 22.25 6.5 C22.83652344 5.87996094 23.42304688 5.25992188 24.02734375 4.62109375 C24.60097656 4.03457031 25.17460937 3.44804688 25.765625 2.84375 C26.55114746 2.02680664 26.55114746 2.02680664 27.35253906 1.19335938 C29 0 29 0 33 0 C33 11.22 33 22.44 33 34 C29.7 34 26.4 34 23 34 C22.67 30.04 22.34 26.08 22 22 C20.35 23.65 18.7 25.3 17 27 C14 26 14 26 10 21 C9.67 25.29 9.34 29.58 9 34 C6.03 34 3.06 34 0 34 C0 22.78 0 11.56 0 0 Z " fill="#FCFCFD" transform="translate(193,59)"/>
<path d="M0 0 C4.44485514 3.91570572 6.71581334 7.31473724 7.5625 13.1875 C7.85931057 18.12197572 7.22491857 22.06754204 4.625 26.3125 C0.6865716 30.42994787 -2.76347735 32.3449961 -8.375 33.3125 C-14.06062879 33.40239136 -18.96217892 31.95447385 -23.375 28.3125 C-27.51941486 23.21168171 -28.05675265 18.7737006 -27.828125 12.2578125 C-26.95231305 6.56503481 -24.35371744 2.80860343 -19.8125 -0.625 C-13.17089008 -3.52006073 -6.49039217 -3.24519609 0 0 Z M-16.375 9.3125 C-18.25961324 13.47435424 -18.72636967 15.36380188 -17.125 19.6875 C-15.63857381 22.38743765 -15.63857381 22.38743765 -13.375 23.3125 C-8.64550934 23.80738192 -8.64550934 23.80738192 -4.5 21.9375 C-2.01920398 18.35412797 -2.00113049 15.64938632 -2.375 11.3125 C-4.30482417 8.59645117 -5.71700775 7.56557394 -8.8125 6.375 C-12.32489479 6.28933183 -13.71973902 7.01605807 -16.375 9.3125 Z " fill="#FCFDFD" transform="translate(257.375,60.6875)"/>
<path d="M0 0 C4.88643586 4.43188369 7.93926491 8.69853314 8.3125 15.4375 C8.0174243 20.76525574 6.16891715 24.44952744 2.6875 28.4375 C-1.87265668 32.47945706 -6.32313268 33.69128675 -12.3125 33.4375 C-17.94288701 32.29729618 -21.61815748 29.89244245 -25.3125 25.4375 C-28.36320142 20.49622305 -27.90068658 15.04732955 -27.3125 9.4375 C-25.63427025 4.06907187 -22.18824203 1.07852693 -17.3125 -1.5625 C-11.51584346 -3.45062257 -5.42848899 -2.56060801 0 0 Z M-14.125 7.5625 C-16.44957955 9.55499676 -17.49598193 10.49803494 -18.3125 13.4375 C-18.18335587 17.11810775 -18.09109391 19.5091765 -15.6875 22.375 C-12.30081357 23.89009656 -9.97832737 23.96118962 -6.3125 23.4375 C-3.33143461 20.83862248 -2.41861144 19.30407677 -1.9375 15.375 C-2.36232361 11.57546845 -2.36232361 11.57546845 -4.3125 8.4375 C-8.13805856 6.77735195 -10.18603356 5.98691342 -14.125 7.5625 Z " fill="#FBFCFD" transform="translate(152.3125,60.5625)"/>
<path d="M0 0 C2.22100238 1.81718377 3.15919745 2.97759236 4.0625 5.6875 C4.0625 7.0075 4.0625 8.3275 4.0625 9.6875 C-0.3925 10.1825 -0.3925 10.1825 -4.9375 10.6875 C-5.2675 9.6975 -5.5975 8.7075 -5.9375 7.6875 C-7.9175 7.6875 -9.8975 7.6875 -11.9375 7.6875 C-11.9375 8.6775 -11.9375 9.6675 -11.9375 10.6875 C-11.04546875 10.84605469 -10.1534375 11.00460938 -9.234375 11.16796875 C-8.06390625 11.40128906 -6.8934375 11.63460937 -5.6875 11.875 C-4.52734375 12.09542969 -3.3671875 12.31585938 -2.171875 12.54296875 C1.66210072 13.89967755 2.94028834 15.265241 5.0625 18.6875 C5.80951654 23.25260107 5.44911728 25.08483189 2.9375 29 C-0.66588649 32.36838302 -3.16783117 33.69730414 -8.14453125 33.6796875 C-13.91847532 33.23922079 -17.77305496 31.85194504 -21.9375 27.6875 C-22.33514263 25.69928687 -22.67525349 23.69805661 -22.9375 21.6875 C-19.6375 21.6875 -16.3375 21.6875 -12.9375 21.6875 C-12.6075 22.3475 -12.2775 23.0075 -11.9375 23.6875 C-9.9575 23.6875 -7.9775 23.6875 -5.9375 23.6875 C-5.9375 22.6975 -5.9375 21.7075 -5.9375 20.6875 C-6.67355469 20.60113281 -7.40960938 20.51476562 -8.16796875 20.42578125 C-12.86055398 19.75009857 -16.16397567 19.24443751 -20.0625 16.4375 C-22.21608133 13.27891404 -22.9375 11.51173891 -22.9375 7.6875 C-21.68504195 3.51263983 -20.01129825 1.39840377 -16.3125 -0.75 C-10.6409545 -3.25676044 -5.54540401 -2.47773371 0 0 Z " fill="#FBFCFD" transform="translate(288.9375,60.3125)"/>
<path d="M0 0 C2.22100238 1.81718377 3.15919745 2.97759236 4.0625 5.6875 C4.0625 7.0075 4.0625 8.3275 4.0625 9.6875 C1.0925 9.6875 -1.8775 9.6875 -4.9375 9.6875 C-5.2675 9.0275 -5.5975 8.3675 -5.9375 7.6875 C-7.9175 7.6875 -9.8975 7.6875 -11.9375 7.6875 C-11.9375 8.6775 -11.9375 9.6675 -11.9375 10.6875 C-11.35742188 10.71328125 -10.77734375 10.7390625 -10.1796875 10.765625 C-4.70986619 11.16277374 -1.28559912 12.08175927 3.0625 15.6875 C5.57500583 19.45625875 5.59266086 21.21900134 5.0625 25.6875 C2.81312382 29.19388051 1.00794801 31.19328854 -2.6875 33.125 C-8.05216929 34.05350045 -12.8084848 33.61315878 -17.8125 31.4375 C-20.27835546 29.4067955 -21.56972859 27.56701875 -22.9375 24.6875 C-22.9375 23.6975 -22.9375 22.7075 -22.9375 21.6875 C-19.9675 21.3575 -16.9975 21.0275 -13.9375 20.6875 C-13.2775 21.6775 -12.6175 22.6675 -11.9375 23.6875 C-9.96002878 24.05047936 -9.96002878 24.05047936 -7.8125 23.875 C-6.53375 23.813125 -5.255 23.75125 -3.9375 23.6875 C-6.35426974 20.76526208 -8.1024829 20.27484256 -11.8125 19.8125 C-15.32912859 19.16984127 -17.00277798 18.64441653 -20.0625 16.625 C-22.29057584 13.13434785 -22.6635596 10.92283772 -22.42578125 6.83984375 C-21.62351103 3.30343661 -19.79547645 1.7833494 -16.9375 -0.3125 C-11.63465346 -3.55312844 -5.44489573 -2.43282575 0 0 Z " fill="#FBFCFD" transform="translate(183.9375,60.3125)"/>
<path d="M0 0 C0.2258868 4.41595304 0.42767834 8.83268565 0.625 13.25 C0.68945312 14.50425781 0.75390625 15.75851563 0.8203125 17.05078125 C0.89765625 18.85869141 0.89765625 18.85869141 0.9765625 20.703125 C1.02893066 21.81333008 1.08129883 22.92353516 1.13525391 24.06738281 C0.99761059 27.05180794 0.66132714 28.55079172 -1 31 C-6.0404132 34.86074203 -10.08738189 35.64777594 -16.41015625 35.37890625 C-20.21377489 34.82241906 -22.25438554 33.6769741 -25 31 C-28.63591059 24.69436485 -28.18679413 19.18075522 -27.6875 12.0625 C-27.62626953 10.99708984 -27.56503906 9.93167969 -27.50195312 8.83398438 C-27.34964771 6.22136079 -27.18194907 3.61069835 -27 1 C-24.03 1 -21.06 1 -18 1 C-17.67 8.92 -17.34 16.84 -17 25 C-15.02 25.33 -13.04 25.66 -11 26 C-9.28556781 24.28556781 -9.76947033 21.99554759 -9.68359375 19.65234375 C-9.64169922 18.57275391 -9.59980469 17.49316406 -9.55664062 16.38085938 C-9.51732422 15.24455078 -9.47800781 14.10824219 -9.4375 12.9375 C-9.37272461 11.22723633 -9.37272461 11.22723633 -9.30664062 9.48242188 C-9.20017161 6.65507805 -9.09815793 3.82764262 -9 1 C-1.125 0 -1.125 0 0 0 Z " fill="#FCFCFD" transform="translate(349,58)"/>
<path d="M0 0 C0.33 0.99 0.66 1.98 1 3 C-0.93199335 6.13948919 -3.11674046 9.03236298 -5.3125 11.9921875 C-7.19282787 14.78355897 -7.19282787 14.78355897 -7.03515625 17.46484375 C-5.63835678 20.88568471 -3.62005335 23.73620657 -1.4375 26.6875 C3 32.75455235 3 32.75455235 3 35 C-0.80200661 35.54797604 -4.22327996 35.79264495 -8 35 C-10.73315938 32.34950707 -12.38763727 29.42882201 -14 26 C-14.31710937 26.6496875 -14.63421875 27.299375 -14.9609375 27.96875 C-16.4617211 30.65523557 -17.82130344 32.81704817 -20 35 C-23.45459085 35.78653631 -26.51969146 35.55712449 -30 35 C-28.13687431 29.60882779 -24.84978813 25.48661016 -21.484375 20.9375 C-19.68281112 18.14175689 -19.68281112 18.14175689 -20.5703125 15.4140625 C-22.48405118 12.18266769 -24.57808986 9.14172091 -26.7578125 6.0859375 C-28 4 -28 4 -28 1 C-24.7 1 -21.4 1 -18 1 C-16.68 3.31 -15.36 5.62 -14 8 C-13.360625 6.865625 -12.72125 5.73125 -12.0625 4.5625 C-10.37475972 2.14308041 -9.52492321 1.15449245 -6.6640625 0.3125 C-4.42548534 0.08652376 -2.24892982 -0.0342974 0 0 Z " fill="#FBFCFD" transform="translate(381,58)"/>
<path d="M0 0 C2.97 0 5.94 0 9 0 C9.33 7.92 9.66 15.84 10 24 C13.96 24.33 17.92 24.66 22 25 C22.09765625 31.15234375 22.09765625 31.15234375 22 33 C21 34 21 34 18.86694336 34.11352539 C17.49227905 34.10567017 17.49227905 34.10567017 16.08984375 34.09765625 C15.199021 34.09515869 14.30819824 34.09266113 13.39038086 34.09008789 C12.25093018 34.08098389 11.11147949 34.07187988 9.9375 34.0625 C6.328125 34.041875 2.71875 34.02125 -1 34 C-0.67 22.78 -0.34 11.56 0 0 Z " fill="#FBFBFD" transform="translate(298,59)"/>
<path d="M0 0 C2.4375 0.75 2.4375 0.75 4.4375 2.75 C4.8125 5.1875 4.8125 5.1875 4.4375 7.75 C2.75 9.625 2.75 9.625 0.4375 10.75 C-3.97275641 10.33974359 -3.97275641 10.33974359 -5.5625 8.75 C-5.8125 5.3125 -5.8125 5.3125 -5.5625 1.75 C-2.5625 -0.25 -2.5625 -0.25 0 0 Z " fill="#FBFBFC" transform="translate(70.5625,70.25)"/>
<path d="M0 0 C4.29 0 8.58 0 13 0 C12.67 0.66 12.34 1.32 12 2 C8.04 2 4.08 2 0 2 C0 1.34 0 0.68 0 0 Z " fill="#EBF1FF" transform="translate(111,75)"/>
</svg>
